<svg xmlns="http://www.w3.org/2000/svg"  viewBox="0 0 100 100" width="200px" height="200px"><path d="M18.5,90C12.71,90,8,85.29,8,79.5v-55C8,18.71,12.71,14,18.5,14h21.065	c2.43,0,4.801,0.851,6.676,2.396L51.832,21H83.5C89.29,21,94,25.71,94,31.5v48C94,85.29,89.29,90,83.5,90H18.5z" opacity=".35"/><path fill="#f2f2f2" d="M16.5,88C10.71,88,6,83.29,6,77.5v-55C6,16.71,10.71,12,16.5,12h21.065	c2.43,0,4.801,0.851,6.676,2.396L49.832,19H81.5C87.29,19,92,23.71,92,29.5v48C92,83.29,87.29,88,81.5,88H16.5z"/><path fill="#2b59a1" d="M12.5,77.5v-55c0-2.209,1.791-4,4-4h21.065c0.928,0,1.827,0.322,2.543,0.912l6.284,5.175	c0.716,0.59,1.615,0.912,2.543,0.912H81.5c2.209,0,4,1.791,4,4v48c0,2.209-1.791,4-4,4h-65C14.291,81.5,12.5,79.709,12.5,77.5z"/><path fill="#70bfff" d="M12.5,77.5V32h73v45.5c0,2.209-1.791,4-4,4h-65C14.291,81.5,12.5,79.709,12.5,77.5z"/><path fill="#40396e" d="M81.5,83h-65c-3.032,0-5.5-2.467-5.5-5.5v-55c0-3.033,2.468-5.5,5.5-5.5h21.064	c1.273,0,2.515,0.445,3.497,1.254l6.284,5.176c0.446,0.368,1.011,0.57,1.59,0.57H81.5c3.032,0,5.5,2.467,5.5,5.5v48	C87,80.533,84.532,83,81.5,83z M16.5,20c-1.379,0-2.5,1.122-2.5,2.5v55c0,1.378,1.121,2.5,2.5,2.5h65c1.379,0,2.5-1.122,2.5-2.5v-48	c0-1.378-1.121-2.5-2.5-2.5H48.936c-1.273,0-2.515-0.445-3.497-1.254l-6.284-5.176c-0.446-0.368-1.011-0.57-1.59-0.57H16.5z"/></svg>